REM DIRINDEX 1\2\6,1\2\7,1\2\8,1\3\9,1\3\10,1\3\11,1\4\12,1\4\13,1\4\14,1\5\15,1\5\16,1\5\17,1\5\18
REM DIRNAME folder01,folder02,folder03,folder04,folder05,folder06,folder07,folder08,folder09,folder10,folder11,folder12,folder13,folder14,folder15,folder16,folder17,folder18
TITLE ""
FILE "2Q_t_0388-0405.mp3" MP3
  TRACK 01 AUDIO
    TITLE "13:cjc019_2833"
    INDEX 01 00:00:00
  TRACK 02 AUDIO
    TITLE "0:"
    INDEX 01 00:01:07
  TRACK 03 AUDIO
    TITLE "14:cjc019_2834"
    INDEX 01 00:01:71
  TRACK 04 AUDIO
    TITLE "0:"
    INDEX 01 00:04:17
  TRACK 05 AUDIO
    TITLE "13:cjc019_2835"
    INDEX 01 00:04:70
  TRACK 06 AUDIO
    TITLE "0:"
    INDEX 01 00:06:22
  TRACK 07 AUDIO
    TITLE "14:cjc019_2836"
    INDEX 01 00:07:11
  TRACK 08 AUDIO
    TITLE "0:"
    INDEX 01 00:09:71
  TRACK 09 AUDIO
    TITLE "13:cjc019_2837"
    INDEX 01 00:10:49
  TRACK 10 AUDIO
    TITLE "0:"
    INDEX 01 00:12:01
  TRACK 11 AUDIO
    TITLE "14:cjc019_2838"
    INDEX 01 00:12:48
  TRACK 12 AUDIO
    TITLE "0:"
    INDEX 01 00:13:47
  TRACK 13 AUDIO
    TITLE "13:cjc019_2839"
    INDEX 01 00:14:29
  TRACK 14 AUDIO
    TITLE "0:"
    INDEX 01 00:15:44
  TRACK 15 AUDIO
    TITLE "14:cjc019_2840"
    INDEX 01 00:16:24
  TRACK 16 AUDIO
    TITLE "0:"
    INDEX 01 00:19:15
  TRACK 17 AUDIO
    TITLE "13:cjc019_2841"
    INDEX 01 00:19:67
  TRACK 18 AUDIO
    TITLE "0:"
    INDEX 01 00:21:06
  TRACK 19 AUDIO
    TITLE "14:cjc019_2842"
    INDEX 01 00:21:66
  TRACK 20 AUDIO
    TITLE "0:"
    INDEX 01 00:24:04
  TRACK 21 AUDIO
    TITLE "13:cjc019_2843"
    INDEX 01 00:24:61
  TRACK 22 AUDIO
    TITLE "0:"
    INDEX 01 00:26:34
  TRACK 23 AUDIO
    TITLE "14:cjc019_2844"
    INDEX 01 00:27:12
  TRACK 24 AUDIO
    TITLE "0:"
    INDEX 01 00:29:05
  TRACK 25 AUDIO
    TITLE "13:cjc019_2845"
    INDEX 01 00:29:62
  TRACK 26 AUDIO
    TITLE "0:"
    INDEX 01 00:31:08
  TRACK 27 AUDIO
    TITLE "14:cjc019_2846"
    INDEX 01 00:31:63
  TRACK 28 AUDIO
    TITLE "0:"
    INDEX 01 00:34:38
  TRACK 29 AUDIO
    TITLE "13:cjc019_2847"
    INDEX 01 00:35:14
  TRACK 30 AUDIO
    TITLE "0:"
    INDEX 01 00:36:38
  TRACK 31 AUDIO
    TITLE "14:cjc019_2848"
    INDEX 01 00:37:18
  TRACK 32 AUDIO
    TITLE "0:"
    INDEX 01 00:39:43
  TRACK 33 AUDIO
    TITLE "13:cjc019_2849"
    INDEX 01 00:40:19
  TRACK 34 AUDIO
    TITLE "0:"
    INDEX 01 00:41:28
  TRACK 35 AUDIO
    TITLE "14:cjc019_2850"
    INDEX 01 00:42:12
  TRACK 36 AUDIO
    TITLE "0:"
    INDEX 01 00:46:53
  TRACK 37 AUDIO
    TITLE "13:cjc019_2851"
    INDEX 01 00:47:34
  TRACK 38 AUDIO
    TITLE "0:"
    INDEX 01 00:48:44
  TRACK 39 AUDIO
    TITLE "14:cjc019_2852"
    INDEX 01 00:49:25
  TRACK 40 AUDIO
    TITLE "0:"
    INDEX 01 00:53:49
  TRACK 41 AUDIO
    TITLE "13:cjc019_2853"
    INDEX 01 00:54:29
  TRACK 42 AUDIO
    TITLE "0:"
    INDEX 01 00:55:46
  TRACK 43 AUDIO
    TITLE "14:cjc019_2854"
    INDEX 01 00:56:24
  TRACK 44 AUDIO
    TITLE "0:"
    INDEX 01 01:00:17
  TRACK 45 AUDIO
    TITLE "13:cjc019_2855"
    INDEX 01 01:00:74
  TRACK 46 AUDIO
    TITLE "0:"
    INDEX 01 01:02:16
  TRACK 47 AUDIO
    TITLE "14:cjc019_2856"
    INDEX 01 01:03:06
  TRACK 48 AUDIO
    TITLE "0:"
    INDEX 01 01:07:49
  TRACK 49 AUDIO
    TITLE "13:cjc019_2857"
    INDEX 01 01:08:31
  TRACK 50 AUDIO
    TITLE "0:"
    INDEX 01 01:09:56
  TRACK 51 AUDIO
    TITLE "14:cjc019_2858"
    INDEX 01 01:10:41
  TRACK 52 AUDIO
    TITLE "0:"
    INDEX 01 01:14:65
  TRACK 53 AUDIO
    TITLE "13:cjc019_2859"
    INDEX 01 01:15:50
  TRACK 54 AUDIO
    TITLE "0:"
    INDEX 01 01:16:73
  TRACK 55 AUDIO
    TITLE "14:cjc019_2860"
    INDEX 01 01:17:57
  TRACK 56 AUDIO
    TITLE "0:"
    INDEX 01 01:22:64
  TRACK 57 AUDIO
    TITLE "13:cjc019_2861"
    INDEX 01 01:23:48
  TRACK 58 AUDIO
    TITLE "0:"
    INDEX 01 01:25:04
  TRACK 59 AUDIO
    TITLE "14:cjc019_2862"
    INDEX 01 01:25:60
  TRACK 60 AUDIO
    TITLE "0:"
    INDEX 01 01:29:46
  TRACK 61 AUDIO
    TITLE "13:cjc019_2863"
    INDEX 01 01:30:28
  TRACK 62 AUDIO
    TITLE "0:"
    INDEX 01 01:31:53
  TRACK 63 AUDIO
    TITLE "14:cjc019_2864"
    INDEX 01 01:32:39
  TRACK 64 AUDIO
    TITLE "0:"
    INDEX 01 01:37:17
  TRACK 65 AUDIO
    TITLE "13:cjc019_2865"
    INDEX 01 01:37:73
  TRACK 66 AUDIO
    TITLE "0:"
    INDEX 01 01:39:35
  TRACK 67 AUDIO
    TITLE "14:cjc019_2866"
    INDEX 01 01:40:17
  TRACK 68 AUDIO
    TITLE "0:"
    INDEX 01 01:41:46
  TRACK 69 AUDIO
    TITLE "13:cjc019_2867"
    INDEX 01 01:42:28
  TRACK 70 AUDIO
    TITLE "0:"
    INDEX 01 01:43:47
  TRACK 71 AUDIO
    TITLE "14:cjc019_2868"
    INDEX 01 01:44:30
  TRACK 72 AUDIO
    TITLE "0:"
    INDEX 01 01:46:37
